mtllib piggy.mtl
o leg1
v 0.430558 0.316377 0.468740
v 0.379414 0.008091 0.468740
v 0.430558 0.316377 0.281240
v 0.379414 0.008091 0.281240
v 0.245586 0.347063 0.281240
v 0.194442 0.038777 0.281240
v 0.245586 0.347063 0.468740
v 0.194442 0.038777 0.468740
vt 0.8125 0.7500
vt 0.9062 0.7500
vt 0.9062 0.9062
vt 0.8125 0.9062
vt 1.0000 0.7500
vt 1.0000 0.9062
vt 0.7188 0.9062
vt 0.8125 0.9062
vt 0.8125 1.0000
vt 0.7188 1.0000
vt 0.7188 0.7500
vt 0.7188 0.9062
vt 0.6250 0.7500
vt 0.6250 0.9062
vn 0.0000 -0.0000 1.0000
vn 0.9865 -0.1637 -0.0000
vn -0.1637 -0.9865 -0.0000
vn -0.9865 0.1637 0.0000
vn -0.0000 0.0000 -1.0000
usemtl 2
f 8/1/1 2/2/1 1/3/1 7/4/1
f 2/2/2 4/5/2 3/6/2 1/3/2
f 6/7/3 4/8/3 2/9/3 8/10/3
f 6/11/4 8/1/4 7/4/4 5/12/4
f 4/13/5 6/11/5 5/12/5 3/14/5
o leg3
v 0.752046 0.347137 0.906240
v 0.807479 0.039593 0.906240
v 0.752046 0.347137 0.718740
v 0.807479 0.039593 0.718740
v 0.567520 0.313878 0.718740
v 0.622953 0.006333 0.718740
v 0.567520 0.313878 0.906240
v 0.622953 0.006333 0.906240
vt 0.8125 0.5000
vt 0.9062 0.5000
vt 0.9062 0.6562
vt 0.8125 0.6562
vt 1.0000 0.5000
vt 1.0000 0.6562
vt 0.7188 0.6562
vt 0.8125 0.6562
vt 0.8125 0.7500
vt 0.7188 0.7500
vt 0.7188 0.5000
vt 0.7188 0.6562
vt 0.6250 0.5000
vt 0.6250 0.6562
vn -0.0000 0.0000 1.0000
vn 0.9841 0.1774 0.0000
vn 0.1774 -0.9841 -0.0000
vn -0.9841 -0.1774 -0.0000
vn -0.0000 0.0000 -1.0000
usemtl 2
f 16/15/6 10/16/6 9/17/6 15/18/6
f 10/16/7 12/19/7 11/20/7 9/17/7
f 14/21/8 12/22/8 10/23/8 16/24/8
f 14/25/9 16/15/9 15/18/9 13/26/9
f 12/27/10 14/25/10 13/26/10 11/28/10
o ear2
v 0.166847 0.901639 0.123708
v 0.300164 0.796727 0.203559
v 0.155730 0.929317 0.178632
v 0.289048 0.824405 0.258483
v 0.283286 1.060676 0.138253
v 0.416604 0.955765 0.218104
v 0.294403 1.032999 0.083329
v 0.427720 0.928087 0.163181
vt 0.0312 0.2812
vt 0.1250 0.2812
vt 0.1250 0.3750
vt 0.0312 0.3750
vt 0.2188 0.2812
vt 0.2500 0.2812
vt 0.2500 0.3750
vt 0.2188 0.3750
vt 0.1250 0.2812
vt 0.2188 0.2812
vt 0.2188 0.3750
vt 0.1250 0.3750
vt 0.1250 0.3750
vt 0.2188 0.3750
vt 0.2188 0.4062
vt 0.1250 0.4062
vt -0.0000 0.2812
vt -0.0000 0.3750
vt 0.1250 0.4062
vt 0.0312 0.4062
vn 0.1779 -0.4428 -0.8788
vn -0.6803 -0.7006 0.2154
vn -0.1779 0.4428 0.8788
vn 0.7110 -0.5595 0.4259
vn 0.6803 0.7006 -0.2154
vn -0.7110 0.5595 -0.4259
usemtl 2
f 24/29/11 18/30/11 17/31/11 23/32/11
f 18/33/12 20/34/12 19/35/12 17/36/12
f 20/37/13 22/38/13 21/39/13 19/40/13
f 22/41/14 20/42/14 18/43/14 24/44/14
f 22/45/15 24/29/15 23/32/15 21/46/15
f 23/32/16 17/31/16 19/47/16 21/48/16
o ear1
v 0.818626 0.978114 0.131486
v 0.744743 0.809975 0.169255
v 0.787254 0.979763 0.077455
v 0.713370 0.811623 0.115224
v 0.642895 1.062593 0.163803
v 0.569012 0.894454 0.201572
v 0.674268 1.060945 0.217833
v 0.600384 0.892805 0.255603
vt 0.1250 0.4062
vt 0.2188 0.4062
vt 0.2188 0.5000
vt 0.1250 0.5000
vt 0.2500 0.4062
vt 0.2500 0.5000
vt 0.0312 0.4062
vt 0.1250 0.4062
vt 0.1250 0.5000
vt 0.0312 0.5000
vt 0.1250 0.5000
vt 0.2188 0.5000
vt 0.2188 0.5312
vt 0.1250 0.5312
vt 0.0000 0.4062
vt 0.0312 0.4062
vt 0.0312 0.5000
vt 0.0000 0.5000
vt 0.1250 0.5000
vt 0.1250 0.5312
vt 0.0312 0.5312
vn 0.5020 -0.0264 0.8645
vn 0.7699 -0.4418 -0.4605
vn -0.5020 0.0264 -0.8645
vn -0.3940 -0.8967 0.2014
vn -0.7699 0.4418 0.4605
vn 0.3940 0.8967 -0.2014
usemtl 2
f 32/49/17 26/50/17 25/51/17 31/52/17
f 26/50/18 28/53/18 27/54/18 25/51/18
f 28/55/19 30/56/19 29/57/19 27/58/19
f 30/59/20 28/60/20 26/61/20 32/62/20
f 30/63/21 32/64/21 31/65/21 29/66/21
f 31/65/22 25/67/22 27/68/22 29/69/22
o body
v 0.812499 0.937496 0.937490
v 0.812499 0.312496 0.937490
v 0.812499 0.937497 0.249990
v 0.812499 0.312497 0.249990
v 0.187499 0.937497 0.249990
v 0.187499 0.312497 0.249990
v 0.187499 0.937496 0.937490
v 0.187499 0.312496 0.937490
vt 0.3438 0.3438
vt 0.6562 0.3438
vt 0.6562 0.6562
vt 0.3438 0.6562
vt 0.0000 0.3438
vt 0.3438 0.3438
vt 0.3438 0.6562
vt 0.0000 0.6562
vt 0.6562 0.3438
vt 0.9688 0.3438
vt 0.9688 0.6562
vt 0.6562 0.6562
vt 0.6562 0.6562
vt 0.9688 0.6562
vt 0.9688 1.0000
vt 0.6562 1.0000
vt 0.0000 0.6875
vt 0.3438 0.6875
vt 0.3438 1.0000
vt 0.0000 1.0000
vt 0.6562 1.0000
vt 0.3438 1.0000
vn 0.0000 -0.0000 1.0000
vn 1.0000 0.0000 0.0000
vn 0.0000 0.0000 -1.0000
vn 0.0000 -1.0000 -0.0000
vn -1.0000 0.0000 0.0000
vn 0.0000 1.0000 0.0000
usemtl 1
f 40/70/23 34/71/23 33/72/23 39/73/23
f 34/74/24 36/75/24 35/76/24 33/77/24
f 36/78/25 38/79/25 37/80/25 35/81/25
f 38/82/26 36/83/26 34/84/26 40/85/26
f 38/86/27 40/87/27 39/88/27 37/89/27
f 39/73/28 33/72/28 35/90/28 37/91/28
o leg2
v 0.766628 0.330991 0.468740
v 0.795092 0.019790 0.468740
v 0.766628 0.330991 0.281240
v 0.795092 0.019790 0.281240
v 0.579907 0.313912 0.281240
v 0.608372 0.002711 0.281240
v 0.579907 0.313912 0.468740
v 0.608372 0.002711 0.468740
vt 0.8125 0.2500
vt 0.9062 0.2500
vt 0.9062 0.4062
vt 0.8125 0.4062
vt 1.0000 0.2500
vt 1.0000 0.4062
vt 0.7188 0.4062
vt 0.8125 0.4062
vt 0.8125 0.5000
vt 0.7188 0.5000
vt 0.7188 0.2500
vt 0.7188 0.4062
vt 0.6250 0.2500
vt 0.6250 0.4062
vn 0.0000 -0.0000 1.0000
vn 0.9958 0.0911 0.0000
vn 0.0911 -0.9958 -0.0000
vn -0.9958 -0.0911 -0.0000
vn 0.0000 0.0000 -1.0000
usemtl 2
f 48/92/29 42/93/29 41/94/29 47/95/29
f 42/93/30 44/96/30 43/97/30 41/94/30
f 46/98/31 44/99/31 42/100/31 48/101/31
f 46/102/32 48/92/32 47/95/32 45/103/32
f 44/104/33 46/102/33 45/103/33 43/105/33
o leg4
v 0.443909 0.323798 0.906240
v 0.362041 0.022213 0.906240
v 0.443909 0.323798 0.718740
v 0.362041 0.022213 0.718740
v 0.262958 0.372919 0.718740
v 0.181090 0.071334 0.718740
v 0.262958 0.372919 0.906240
v 0.181090 0.071334 0.906240
vt 0.8125 0.0000
vt 0.9062 0.0000
vt 0.9062 0.1562
vt 0.8125 0.1562
vt 1.0000 0.0000
vt 1.0000 0.1562
vt 0.7188 0.1562
vt 0.8125 0.1562
vt 0.8125 0.2500
vt 0.7188 0.2500
vt 0.7188 0.0000
vt 0.7188 0.1562
vt 0.6250 0.0000
vt 0.6250 0.1562
vn 0.0000 0.0000 1.0000
vn 0.9651 -0.2620 -0.0000
vn -0.2620 -0.9651 -0.0000
vn -0.9651 0.2620 0.0000
vn -0.0000 0.0000 -1.0000
usemtl 2
f 56/106/34 50/107/34 49/108/34 55/109/34
f 50/107/35 52/110/35 51/111/35 49/108/35
f 54/112/36 52/113/36 50/114/36 56/115/36
f 54/116/37 56/106/37 55/109/37 53/117/37
f 52/118/38 54/116/38 53/117/38 51/119/38
o head
v 0.718750 0.937497 0.249990
v 0.718750 0.499997 0.249990
v 0.718750 0.937497 0.062490
v 0.718750 0.499997 0.062490
v 0.281250 0.937497 0.062490
v 0.281250 0.499997 0.062490
v 0.281250 0.937497 0.249990
v 0.281250 0.499997 0.249990
vt 0.0938 0.9062
vt 0.3125 0.9062
vt 0.3125 1.0000
vt 0.0938 1.0000
vt 0.3125 0.9062
vt 0.5312 0.9062
vt 0.5312 1.0000
vt 0.3125 1.0000
vt 0.0938 0.6875
vt 0.3125 0.6875
vt 0.3125 0.9062
vt 0.0938 0.9062
vt 0.5312 0.6875
vt 0.6250 0.6875
vt 0.6250 0.9062
vt 0.5312 0.9062
vt 0.0000 0.6875
vt 0.0000 0.9062
vn 0.0000 1.0000 0.0000
vn 0.0000 -1.0000 -0.0000
vn 0.0000 0.0000 -1.0000
vn -1.0000 -0.0000 0.0000
vn 1.0000 0.0000 0.0000
usemtl 2
f 63/120/39 57/121/39 59/122/39 61/123/39
f 62/124/40 60/125/40 58/126/40 64/127/40
f 60/128/41 62/129/41 61/130/41 59/131/41
f 62/132/42 64/133/42 63/134/42 61/135/42
f 58/136/43 60/128/43 59/131/43 57/137/43
o tail
v 0.529870 1.020736 1.037872
v 0.477227 0.856986 0.963234
v 0.577770 1.055519 0.927778
v 0.525126 0.891769 0.853140
v 0.522772 1.080508 0.911745
v 0.470129 0.916757 0.837107
v 0.474873 1.045725 1.021839
v 0.422230 0.881975 0.947201
vt 0.0938 0.1250
vt 0.1250 0.1250
vt 0.1250 0.2188
vt 0.0938 0.2188
vt 0.0000 0.1250
vt 0.0625 0.1250
vt 0.0625 0.2188
vt 0.0000 0.2188
vt 0.0938 0.1250
vt 0.0938 0.2188
vt 0.0938 0.2188
vt 0.1250 0.2188
vt 0.1250 0.2812
vt 0.0938 0.2812
vt 0.1250 0.1250
vt 0.1875 0.1250
vt 0.1875 0.2188
vt 0.1250 0.2188
vt 0.0625 0.2188
vt 0.0938 0.2188
vt 0.0938 0.2812
vt 0.0625 0.2812
vn -0.3832 -0.2783 0.8808
vn 0.8800 -0.3998 0.2565
vn 0.3832 0.2783 -0.8808
vn -0.2808 -0.8733 -0.3981
vn -0.8800 0.3998 -0.2565
vn 0.2808 0.8733 0.3981
usemtl 2
f 72/138/44 66/139/44 65/140/44 71/141/44
f 66/142/45 68/143/45 67/144/45 65/145/45
f 68/143/46 70/146/46 69/147/46 67/144/46
f 70/148/47 68/149/47 66/150/47 72/151/47
f 70/152/48 72/153/48 71/154/48 69/155/48
f 71/156/49 65/157/49 67/158/49 69/159/49
o snout
v 0.625000 0.812497 0.062490
v 0.625000 0.562497 0.062490
v 0.625000 0.812497 -0.000010
v 0.625000 0.562497 -0.000010
v 0.375000 0.812497 -0.000010
v 0.375000 0.562497 -0.000010
v 0.375000 0.812497 0.062490
v 0.375000 0.562497 0.062490
vt 0.1562 0.6562
vt 0.2812 0.6562
vt 0.2812 0.6875
vt 0.1562 0.6875
vt 0.0000 0.5312
vt 0.0312 0.5312
vt 0.0312 0.6562
vt 0.0000 0.6562
vt 0.1562 0.5312
vt 0.1562 0.6562
vt 0.2812 0.5312
vt 0.3125 0.5312
vt 0.3125 0.6562
vt 0.2812 0.6562
vt 0.0312 0.6562
vt 0.1562 0.6562
vt 0.1562 0.6875
vt 0.0312 0.6875
vn 0.0000 -1.0000 0.0000
vn 1.0000 0.0000 0.0000
vn 0.0000 0.0000 -1.0000
vn -1.0000 0.0000 0.0000
vn 0.0000 1.0000 0.0000
usemtl 2
f 78/160/50 76/161/50 74/162/50 80/163/50
f 74/164/51 76/165/51 75/166/51 73/167/51
f 76/165/52 78/168/52 77/169/52 75/166/52
f 78/170/53 80/171/53 79/172/53 77/173/53
f 79/174/54 73/175/54 75/176/54 77/177/54